<svg xmlns="http://www.w3.org/2000/svg" width="250" height="215.571"><defs><clipPath id="a" clipPathUnits="userSpaceOnUse"><path d="M157.41 354.427H242v59.17h-84.59z"/></clipPath><clipPath id="b" clipPathUnits="userSpaceOnUse"><path d="M167.344 408.418v-48.723h56.612v48.723"/></clipPath></defs><g clip-path="url(#a)" transform="matrix(4.42445 0 0 -4.42445 -740.88 1807.024)"><g clip-path="url(#b)"><path d="M167.548 368.962c.574.64.386 3.827 1.44 4.44 1.367.669 4.946-.113 6.6-2.04 3.284.802 6.909.74 7.92-.24.176-1.333-.696-1.417-.48-1.8.969-2.283-.656-2.158-1.2-2.64 4.731-3.393 20.294-3.768 27.36-.24-3.004 1.285-.903 1.761-1.2 3-.14.596-.616.91-.24 1.56 2.311.662 3.686.787 5.76.48.74-.034 1.147-.112 1.92-.36-.494.605 6.194 4.167 7.2 1.44.682-1.46 1.369-3.648 1.32-3.6-.951-1.298-2.034-1.366-3.12-.72-.456.235-.268.797-1.08 1.92-.251-.248-.626-.248-1.2-.84.137-.22.949-.908.96-.96-.761-.635-1.698-2.635-2.52-3-2.554.677-2.554 2.802-2.52 2.76-1.034.042-2.346.48-2.4.48-.321-1.313.866-1.938.84-1.92.464-1.08 1.276-2.268.24-3-11.714-6.393-29.651-3.768-35.16.12-1.241 1.425.509 2.925.48 2.88.841.982.341 1.92.36 1.92-.894.062-2.019-.438-2.04-.48-.354-1.645-.854-2.333-2.28-2.88-.636-.015-2.511 2.422-2.88 3.24.369.37.556.995.6.96-.294.16-.794.597-.84.6.046-.003-.579-2.065-.6-2.16-1.541-.468-2.479-.155-3.24 1.08" style="fill:#fff;fill-opacity:1;fill-rule:nonzero;stroke:none"/><path d="M168.508 372.682c-.198-1.422-.634-3.26-.96-3.84.046.014 1.498-1.809 3.24-.96.052-.008.525 1.643 1.08 3.24" style="fill:none;stroke:#011f5b;stroke-width:.1926;stroke-linecap:butt;stroke-linejoin:miter;stroke-miterlimit:3.86369991;stroke-opacity:1;stroke-dasharray:none"/><path d="M177.868 408.322h36.48c-.008-.04-.008-17.938 0-18.24.015-13.794-16.334-22.18-18.72-22.2-2.386.064-17.44 6.905-17.76 22.2.034.238.039 18.2 0 18.24" style="fill:#fff;fill-opacity:1;fill-rule:nonzero;stroke:none"/><path d="M177.868 408.322h36.48c-.008-.04-.008-17.938 0-18.24.015-13.794-16.334-22.18-18.72-22.2-2.386.064-17.44 6.905-17.76 22.2.034.238.039 18.2 0 18.24z" style="fill:none;stroke:#011f5b;stroke-width:.1926;stroke-linecap:butt;stroke-linejoin:miter;stroke-miterlimit:3.86369991;stroke-opacity:1;stroke-dasharray:none"/><path d="M179.308 406.762h33.6c.03.039.03-16.481 0-16.8-.196-13.676-15.553-20.878-17.52-20.76-1.973.016-16.122 7.065-16.08 20.88 0 .227.004 16.719 0 16.68" style="fill:#fff;fill-opacity:1;fill-rule:nonzero;stroke:none"/><path d="M179.308 406.762h33.6c.03.039.03-16.481 0-16.8-.196-13.676-15.553-20.878-17.52-20.76-1.973.016-16.122 7.065-16.08 20.88 0 .227.004 16.719 0 16.68zM178.348 363.442c8.173-4.043 21.689-5.675 34.68.12" style="fill:none;stroke:#011f5b;stroke-width:.1926;stroke-linecap:butt;stroke-linejoin:miter;stroke-miterlimit:3.86369991;stroke-opacity:1;stroke-dasharray:none"/><path d="M180.508 369.802c.055-.2.06-.288 0-.48h.12c.003.048.008.06 0 0 .041.056.06.048.12 0 .074.002.196-.03.36 0 .504-.12.646.156.72.36 0 .307-.287.457-.48.6-.335.124-.376.227-.36.36.021.12.107.285.36.24.037.005.41-.045.48-.36a.46.46 0 0 1 0 .24c.031-.042.059.087.12.12h-.12c-.002-.008-.034-.01-.12 0 .014 0-.257.07-.36.12-.298.005-.564-.16-.6-.48-.046-.242.148-.38.36-.48.26-.135.443-.24.36-.48.014-.234-.196-.225-.24-.24-.136.04-.28.094-.36.12-.22.159-.246.25-.24.36zm-.48.72h-.12c.04-.06.023-.193 0-.24-.045.014-.19-.012-.36 0-.122-.027-.214-.026-.24 0-.048.1-.05.148 0 .24-.062.122-.06.222 0 .36.07.046.187.065.36.12q.325-.053.36-.12c-.016-.091-.023-.13 0-.12-.01-.044.016-.048 0 0 .066-.045.099.129.12.36-.22-.07-.318-.074-.48-.12h-.96c.052-.057.07-.059.12-.12.065.04.09.028.12-.12-.006-.074.031-.403 0-.48.045-.167.064-.632 0-.84.033-.033-.022-.049-.12-.12.266.01.385.021.6 0 .3.047.401.05.72 0 .124.23.145.31.12.48-.062-.118-.126-.329-.6-.36-.103.002-.237.017-.36 0 .012.1-.013.199 0 .36-.022-.005-.03.303 0 .36.032-.005.068.002.24 0 .382.03.383.02.48-.24zm-1.8 0c-.035.087-.072.176-.12.48l-.12-.12c.009-.017.005-.023 0 0-.16-.018-.263-.012-.48 0-.414-.14-.91-.514-.84-1.08.134-.36.47-.813 1.2-.6.201-.022.588.112.72.12v.12c-.046-.014-.07-.005-.12.24-.075.32-.073.347 0 .36v.12l-.24-.12c-.014.033-.352-.04-.48 0l.12-.12c.233.044.241.046.36-.36-.03.007-.01-.088 0-.12-.048-.105-.2-.175-.36-.24a.82.82 0 0 0-.84.6c-.103.545.156.859.48.96.434.054.606-.169.72-.24m-2.16-.72c-.046.012-.02-.12 0-.12-.074-.051-.203-.119-.36-.24-.116.02-.204-.006-.24 0a.5.5 0 0 0-.12.24 1.4 1.4 0 0 0-.12.36c.103.046.207.1.36.12.212.114.338.112.36 0 .029-.016.035-.054 0-.12.059.037.084.04.12 0a.53.53 0 0 1-.12.36 2 2 0 0 1-.36-.12l-.84-.36c-.01-.001.006.002 0 0 .122.016.15.012.24-.12.004-.072.146-.374.12-.48.116-.122.284-.558.36-.72-.029-.077-.076-.109-.12-.12v-.12c.224.123.334.17.6.24.216.107.31.14.72.24-.046.204-.052.285-.12.48v-.12c-.031-.051-.025-.27-.36-.36-.204-.11-.337-.136-.48-.12.011.03-.044.116-.12.24.018.022-.089.313-.12.36a.9.9 0 0 1 .24.12c.383.11.387.1.48-.12h.12zm-1.2-1.2c.093-.13.109-.264-.36-.6-.08-.034-.134-.07-.12 0-.101-.031-.153.036-.24.12l-.24.36c-.088.132-.375.535-.36.6-.03.07.025.124.12.24h-.12c-.033-.064-.075-.096-.24-.24-.173-.084-.202-.1-.24-.12v-.12c.057.071.128.11.24 0 .014-.026.04-.063.36-.48.365-.53.381-.551.36-.6.012-.079-.038-.132-.12-.12l.12-.12.6.48c.162.078.255.138.36.12.029.095.073.115.12.12-.075.295-.084.312-.12.36zM181.468 363.922c-.007-.24-.027-.335-.12-.48h.12c.006-.031.015-.019 0 0 .053-.034.073-.049.12 0a.58.58 0 0 1 .36-.24c.63-.285.876-.032.96.12.148.376-.147.63-.36.84-.331.246-.35.37-.24.48.005.151.153.302.48.24.003-.073.426-.246.36-.6h.12c-.032.033.018.165 0 .24.032-.045.1.086.12.12-.084.012-.121.02-.12 0-.083.054-.382.216-.48.24-.357.162-.717.069-.84-.24-.132-.271.057-.481.36-.72.185-.166.369-.338.24-.6-.087-.227-.331-.15-.36-.12-.175.053-.329.158-.48.24-.148.213-.154.319-.12.48zM183.388 362.722c.08-.063.207-.099.48-.24l.48-.12v.12c-.206.045-.22.068-.24.12.038.13.228.663.24.84.086.096.26.582.36.6.052.055.107.046.24 0v.12c-.029-.014-.315.072-.36.12-.052-.016-.161.023-.24.12-.153-.01-.278.034-.36 0 .255-.108.263-.165.24-.24.049-.056-.141-.587-.24-.72-.002-.15-.17-.618-.24-.72-.094-.027-.244.01-.36 0M186.868 362.482c-.07.16-.188.326-.36.48-.384.62-.391.63-.6.84l-.12.12c-.005-.03-.077-.01-.12 0-.094.029-.163.051-.12 0-.074.012-.076 0-.12 0 .31-.137.262-.335.24-.6l-.24-.84c-.113-.223-.16-.32-.36-.24-.022-.07-.024-.078 0-.12.038-.003.364-.064.48-.12.036.02.091.004.12 0 .065-.028.103-.044.12 0 .034-.037.047-.016 0 0-.309.16-.282.263-.24.48l.24.72c-.007.056.034.188 0 .24.088-.035.126-.09.12-.12l.84-1.08c.131-.223.268-.416.36-.6h.12c-.01.14.015.261 0 .24.046.14.164.57.24.72-.007.101.127.592.24.72.034.019.126-.003.12 0h.12c-.092.065-.305.113-.36.12.012.004-.066.025-.12 0-.095.077-.167.097-.24.12.014-.01-.017-.004 0 0h-.12c.34-.16.36-.195.24-.84-.061-.054-.177-.46-.24-.6zM189.868 362.362l-.12.12c-.016-.057-.07-.197-.12-.24-.04.024-.219.03-.48.12a.4.4 0 0 0-.24 0 .6.6 0 0 0 0 .24c.028.19.056.297.12.48.136-.014.28-.02.36 0 .391-.093.524-.165.48-.24.02-.075.003-.115 0-.12.01-.035.04-.046 0 0 .1-.055.182.126.24.36-.256-.01-.374.007-.6 0l-1.08.24v-.12c0 .033.02.027 0 0 .153-.024.181-.043.12-.24.035-.05-.001-.417 0-.48-.046-.205-.136-.714-.24-.84.007-.128-.063-.133-.24-.12v-.12c.363 0 .509-.016.84-.12.292.009.413-.012.84-.12.147.198.191.28.24.48h-.12c-.02-.123-.148-.337-.6-.24-.245.01-.403.058-.48.12-.035.055-.04.168 0 .36-.012-.021.054.316.12.36.02-.002.064-.003.24 0 .495-.106.493-.118.48-.36h.12zM192.388 361.522c.004-.372-.01-.506-.36-.48v-.12h.24c.02 0 .09-.003.12 0a.8.8 0 0 1 .24 0 .4.4 0 0 1 .24 0c-.296.087-.307.133-.24.36-.042.232-.004.484 0 .84.056.06.06.074.12.12-.007-.022.12-.258.24-.36.295-.681.329-.746.36-.96h.12c.236.37.413.67.84 1.32.059-.247.057-.657 0-.96.024-.317-.05-.334-.24-.36v-.12c.102.028.174.024.48 0h.36v.12c-.15-.035-.194-.012-.24.12-.014.143.023 1.068 0 1.2.045.28.097.295.36.36l-.6.12-.48-.72-.12-.36c-.161-.159-.161-.162-.24-.24-.014-.052-.194.277-.24.36a9 9 0 0 0-.48.96c-.177.03-.187.03-.48.12-.101-.052-.193-.04-.24 0v-.12c.296-.044.395-.109.36-.36.02-.035.015-.127 0-.24zM196.108 361.882c-.042.655.464.729.6.72.638.022.865-.634.84-1.08.042-.495-.413-.619-.6-.6-.583-.032-.862.513-.84.96m-.48-.12c.062-.525.497-.983 1.2-.96.712 0 1.153.48 1.2.96-.066.565-.575.98-1.2.96-.592 0-1.158-.38-1.2-.96M199.828 362.362c.098-.322-.25-.357-.36-.36-.145-.023-.159-.021-.24 0-.002.24-.006.276 0 .6-.034.15-.038.19.12.24.428.01.525-.314.48-.48m-1.08-1.44c.264.041.291.044.48 0 .045.068.096.073.12.12.089-.042.15-.039.24 0-.023.034-.161.047-.24.12-.022.037-.055.334-.12.48.036.118.034.172 0 .24.116-.003.143 0 .24 0 .658-.914 1.133-.866 1.44-.84v.12c-.333-.04-.623.203-1.08.84a.62.62 0 0 1 .48.48c-.084.228-.328.48-.84.48-.084-.06-.199-.081-.36-.12-.07-.002-.189-.02-.24 0-.034-.03-.234-.047-.24 0v-.12c.025-.006.16.005.24-.12-.027-.074-.016-.136 0-.48.042-.193.11-.874.12-.96-.039-.094-.09-.12-.24-.12zM201.508 361.282c.125.004.255.032.48.12h.6v.12c-.3-.037-.323-.023-.36.12-.038.023-.14.58-.12.72-.072.144-.164.65-.12.72.052.065.104.083.24.12v.12c-.075-.056-.369-.115-.48-.12.01-.012-.104-.028-.24 0-.11-.061-.242-.08-.24-.12.22-.004.256-.05.24-.12.105-.033.206-.586.24-.72.02-.16.109-.648.12-.72-.09-.118-.24-.155-.36-.24M204.508 362.242c-.007-.156-.052-.361-.48-.48-.123.007-.155.01-.12 0-.084.106-.107.211-.24.84.03.012.072.024.12 0 .096.054.572.123.72-.36m-.48.84c.06-.15-.007-.322-.36-.36-.062.133-.148.521-.12.6-.032.085-.02.097 0 .12.33.048.457-.136.48-.36m-.72-1.56c.084.047.119.06.36.12.009-.008.116.01.24 0 .091.048.195.066.24.12.626.084.712.404.72.6-.085.154-.233.444-.84.36.341.167.411.355.36.48-.038.278-.27.442-.72.36-.023-.015-.122-.039-.24-.12-.07.034-.162.009-.24 0-.123-.032-.204-.043-.24 0v-.12c-.001-.006.103.009.12 0 .105-.085.122-.097.24-.84.218-.782.207-.812 0-.84zM205.468 363.202c.016-.102.11-.476.12-.6.162-.453.692-.375.96-.24.286.018.703.176.72.48.089.213-.03.728-.12.96-.002.093-.091.391-.12.48.047.028.141.057.24.12h-.36c-.078-.067-.139-.077-.24-.12h-.12v-.12c.253.066.316.08.48-.36.082-.383.159-.713.12-.84-.022-.359-.431-.475-.48-.48a.7.7 0 0 0-.48 0c-.142.044-.225.167-.36.72-.23.67-.214.68 0 .84.056-.042.084-.031.12 0h-.12l-.84-.24c.224 0 .267.009.36-.24zM208.228 363.322c.144-.171.198-.253.24-.36h.12c-.01.003-.013.018 0 0 .025.032.05.035 0 0 .22.066.37.102.48.12.66.267.653.613.6.84-.16.308-.555.293-.84.24-.435.017-.539.094-.6.24-.044.119-.047.326.24.48.048-.03.477.128.72-.24v.12c.004.032-.054.161-.12.24.053-.048.009.092 0 .12-.071-.039-.104-.057-.12-.12-.067.032-.399-.052-.48-.12-.38-.103-.572-.41-.48-.72.143-.278.43-.303.72-.24.353-.027.61-.028.72-.24.087-.284-.144-.392-.24-.36-.111-.108-.297-.136-.48-.12-.245-.004-.326.068-.36.24zM209.668 369.442c-.056.055.1-.17.12-.24h.12c-.016.248.045.478.12.6l.12.72c.13.231.188.3.36.36-.27.015-.358 0-.48 0v-.12c-.006.037.08.044.12 0-.008-.127-.192-.78-.24-.96-.035-.117-.04-.134 0-.24-.598.817-.713.982-.72 1.08-.012.006.006.01.12 0v.12l-.6-.12v-.12c.098.076.1.076.36-.24zM211.108 370.642c.079-.182.155-.372.24-.6-.052.037-.094.031-.12 0-.173.028-.272.039-.36 0zm-.24-.72c.097.066.223.068.36.12.072-.049.1-.05.12 0 .042-.09.176-.417.12-.48.057-.03-.005-.057-.12-.12.13 0 .252.015.36 0 .164.02.224.016.24 0v.12c-.062-.045-.106-.038-.24.36-.08.137-.353.783-.36.96-.084.053-.1.108-.12.12h-.12c.04-.008.026-.054 0-.12-.032-.084-.465-1.162-.6-1.32-.001-.063-.067-.077-.12-.12a1 1 0 0 1 .24 0c-.04-.01.03-.01.12 0 .063-.013.141-.015.12 0-.035.052-.16.066-.12.12-.043.076 0 .178 0 .24zM213.628 369.802a.85.85 0 0 0-.24.36c-.414.44-.42.45-.6.6l-.12.12c.026-.048-.03-.037-.12 0-.018-.016-.071-.003-.12 0 .027-.037.026-.047 0-.12.238-.02.213-.19.12-.36l-.12-.72c0-.254-.029-.338-.24-.36.04.012.039.004 0 0 .09-.029.342-.052.36 0 .1-.07.144-.08.24-.12-.022.022.009.012 0 0 .047.022.055.04 0 .12-.227.038-.213.127-.12.36v.6c.06.021.085.135.12.24.005-.086.038-.129.12-.12l.6-.96c.135-.087.25-.237.36-.36v-.12.12c.048.104.06.207.12.24-.043.069.023.439 0 .48.061.175.136.597.24.72 0 .011.072 0 .12 0-.035.06-.201.082-.24.12.006-.032-.056-.02-.12 0-.053.01-.11.021-.12 0-.036.028-.06.03-.12 0 .251-.081.268-.11.24-.6-.07-.109-.136-.459-.12-.48zM215.188 369.922c.03-.174.038-.378 0-.6.005.032-.037.04-.12.12-.106-.021-.196.02-.24 0zm-.48-.48q.21-.103.36-.12c.1-.05.126-.062.12-.12.05.003.066-.35 0-.36.036-.078-.031-.083-.12-.12.08-.027.202-.052.36-.12.1-.013.156-.035.24 0-.107.035-.147.056-.12.48-.048.149-.088.845-.12.96.024.13.027.188 0 .24-.066-.017-.095-.056-.12-.12-.08-.06-.854-.942-.96-1.08a.4.4 0 0 0-.24 0v-.12c.057.046.162.013.24 0-.043.003.023-.021.12 0 .046-.071.12-.097.12-.12v.12c-.03-.016-.145.036-.12.12.017.04.091.123.12.12zM217.468 368.842h-.12c.026.011-.055-.087-.12-.12-.006.038-.135.084-.24.12-.137.088-.21.131-.24.12.033.146.055.186.12.24.033.124.086.203.12.36.162-.07.265-.108.36-.12.228-.153.304-.24.24-.36.002.006-.022-.022 0 0-.029-.055-.01-.07 0-.12.031.028.144.153.24.36a.73.73 0 0 0-.36.12l-.84.36c.034-.008.047-.017 0 0 .129-.088.143-.11.12-.24-.069-.06-.204-.34-.24-.36-.076-.183-.293-.566-.36-.72-.079-.025-.131-.012-.24 0 .213-.14.315-.186.48-.24.262-.165.344-.21.6-.36.19.09.247.144.36.24h-.12c-.037-.014-.194-.153-.48 0a1.2 1.2 0 0 0-.36.24c.02.044.05.135.12.24 0 .024.149.276.12.36.104-.07.136-.082.24-.12.356-.197.351-.206.24-.36l.12-.12z" style="fill:#011f5b;fill-opacity:1;fill-rule:evenodd;stroke:none"/><path d="M212.668 364.642c-.132 1.444-3.906 1.868-4.68 2.4-.97.868.15 1.442 0 2.28-.013.424-.522 1.61-.12 1.68 5.678 1.704 9.43-.294 11.64-2.52.227-.206-.332-.521-.72-.96-.243-.346-1.375-2.241-1.8-2.16-1.333.317-2.423 1.571-2.52 2.64" style="fill:none;stroke:#011f5b;stroke-width:.1926;stroke-linecap:butt;stroke-linejoin:miter;stroke-miterlimit:3.86369991;stroke-opacity:1;stroke-dasharray:none"/><path d="M216.988 366.322c-1.362 3.047-9.634 2.61-7.8 1.56.802-.09 2.97-.683 3.84-1.32.407-.356 1.371-2.578-.12-3.12M215.308 371.122c1 1.352 5.864 3.36 7.08 2.04 1.378-1.548-1.17-2.787-2.4-2.4-1.316.394-.587 1.493.12 1.68.264-.01.803.17 1.2-.24.239-.345-.5-1.014-1.08-.84" style="fill:none;stroke:#011f5b;stroke-width:.1926;stroke-linecap:butt;stroke-linejoin:miter;stroke-miterlimit:3.86369991;stroke-opacity:1;stroke-dasharray:none"/><path d="M222.868 372.442c.3-1.285 1.167-2.777.96-3.6.037.039-.398-1.477-2.64-.84-.515.093-1.197 1.85-1.8 3.12" style="fill:none;stroke:#011f5b;stroke-width:.1926;stroke-linecap:butt;stroke-linejoin:miter;stroke-miterlimit:3.86369991;stroke-opacity:1;stroke-dasharray:none"/><path d="M219.988 370.162c-.621-.16-.96-.46-1.2-.84" style="fill:none;stroke:#011f5b;stroke-width:.1926;stroke-linecap:butt;stroke-linejoin:miter;stroke-miterlimit:3.86369991;stroke-opacity:1;stroke-dasharray:none"/><path d="M212.188 367.642c.065-.281.56-.586.6-.96-.97.478-1.034.432-1.56.84-.248.122-2.333.1-2.28.6.192.657 2.587.56 3.36.36 0 .055-.231-.337-.12-.84" style="fill:#011f5b;fill-opacity:1;fill-rule:nonzero;stroke:none"/><path d="M212.188 367.642c.065-.281.56-.586.6-.96-.97.478-1.034.432-1.56.84-.248.122-2.333.1-2.28.6.192.657 2.587.56 3.36.36 0 .055-.231-.337-.12-.84z" style="fill:none;stroke:#011f5b;stroke-width:.1926;stroke-linecap:butt;stroke-linejoin:miter;stroke-miterlimit:3.86369991;stroke-opacity:1;stroke-dasharray:none"/><path d="M215.308 367.762c.002-.035.773-1.633 1.68-1.44.383.056-.316.902-1.68 1.44" style="fill:#011f5b;fill-opacity:1;fill-rule:evenodd;stroke:none"/><path d="M215.308 367.762c.002-.035.773-1.633 1.68-1.44.383.056-.316.902-1.68 1.44zM181.828 366.562c6.138-3.674 21.345-3.322 27.48 0M223.228 371.242c-.317-.417-.51-.648-.96-.72M223.228 370.522c-.317-.406-.259-.402-.72-.48M223.588 370.041c-.405-.448-.304-.563-.72-.6M223.828 369.442c-.42-.41-.278-.368-.72-.48M220.228 371.362c.274-.152.33-.36.36-.6M221.308 371.962c-.011-.325.387-.752.36-.96" style="fill:none;stroke:#011f5b;stroke-width:.1926;stroke-linecap:butt;stroke-linejoin:miter;stroke-miterlimit:3.86369991;stroke-opacity:1;stroke-dasharray:none"/><path d="M178.468 364.642c.18 1.5 3.844 2 4.56 2.64 1.028.76-.046 1.114 0 1.92.117.456 1.147 1.962.24 2.28-4.721 1.394-10.368-.439-11.52-3-.137-.244 2.332-3.355 2.76-3.24 1.33.283 2.296 1.804 2.4 2.88" style="fill:none;stroke:#011f5b;stroke-width:.1926;stroke-linecap:butt;stroke-linejoin:miter;stroke-miterlimit:3.86369991;stroke-opacity:1;stroke-dasharray:none"/><path d="M174.268 366.322c1.371 3.112 9.643 2.674 7.8 1.56-.793-.024-3.059-.447-3.84-1.32-.325-.365-1.35-2.02.24-3.24" style="fill:none;stroke:#011f5b;stroke-width:.1926;stroke-linecap:butt;stroke-linejoin:miter;stroke-miterlimit:3.86369991;stroke-opacity:1;stroke-dasharray:none"/><path d="M171.388 370.041c.59-.172.591-.273.84-.6" style="fill:none;stroke:#011f5b;stroke-width:.125;stroke-linecap:butt;stroke-linejoin:miter;stroke-miterlimit:3.86369991;stroke-opacity:1;stroke-dasharray:none"/><path d="M175.708 371.482c-.996 1.265-5.614 3.066-6.84 1.68-1.368-1.483 1.18-2.722 2.4-2.28 1.326.338.597 1.438-.12 1.56-.254.054-.792.234-1.2-.24-.229-.28.51-.949 1.2-.72" style="fill:none;stroke:#011f5b;stroke-width:.1926;stroke-linecap:butt;stroke-linejoin:miter;stroke-miterlimit:3.86369991;stroke-opacity:1;stroke-dasharray:none"/><path d="M179.068 367.762c-.056-.336-.55-.641-.6-.96.98.423.972.5 1.56.72 1.287.547 2.467.014 2.4.48-.178.69-2.697.744-3.48.6.01 0 .24-.392.12-.84" style="fill:#011f5b;fill-opacity:1;fill-rule:nonzero;stroke:none"/><path d="M179.068 367.762c-.056-.336-.55-.641-.6-.96.98.423.972.5 1.56.72 1.287.547 2.467.014 2.4.48-.178.69-2.697.744-3.48.6.01 0 .24-.392.12-.84z" style="fill:none;stroke:#011f5b;stroke-width:.1926;stroke-linecap:butt;stroke-linejoin:miter;stroke-miterlimit:3.86369991;stroke-opacity:1;stroke-dasharray:none"/><path d="M175.948 367.762c.008.03-.763-1.568-1.68-1.44-.373.12.326.967 1.68 1.44" style="fill:#011f5b;fill-opacity:1;fill-rule:evenodd;stroke:none"/><path d="M175.948 367.762c.008.03-.763-1.568-1.68-1.44-.373.12.326.967 1.68 1.44zM170.668 370.041c.49-.246.538-.012.84.12M170.428 369.442c.226-.197.536-.132.84 0M170.308 368.962c.182-.259.443-.203.72-.12M170.068 368.362c.257-.219.537-.13.96 0M171.028 371.482c-.263-.207-.32-.415-.36-.72M169.948 372.082c.021-.38-.377-.807-.36-.96" style="fill:none;stroke:#011f5b;stroke-width:.1926;stroke-linecap:butt;stroke-linejoin:miter;stroke-miterlimit:3.86369991;stroke-opacity:1;stroke-dasharray:none"/><path d="M178.348 364.762c-.103-.256.003-.65.36-.36.263.327.31 1.021 1.56 1.32.679.108 2.132.48 2.04.6-.52.553-.431.254-.6.36-.044.006-2.505-.33-3.36-1.92" style="fill:#011f5b;fill-opacity:1;fill-rule:nonzero;stroke:none"/><path d="M178.348 364.762c-.103-.256.003-.65.36-.36.263.327.31 1.021 1.56 1.32.679.108 2.132.48 2.04.6-.52.553-.431.254-.6.36-.044.006-2.505-.33-3.36-1.92z" style="fill:none;stroke:#011f5b;stroke-width:.1926;stroke-linecap:butt;stroke-linejoin:miter;stroke-miterlimit:3.86369991;stroke-opacity:1;stroke-dasharray:none"/><path d="M179.308 396.562c.06-.024.013 10.239 0 10.2h33.6c.016.039.016-5.465 0-10.2z" style="fill:#900;fill-opacity:1;fill-rule:nonzero;stroke:none"/><path d="M179.308 396.562c.06-.024.013 10.239 0 10.2h33.6c.016.039.016-5.465 0-10.2z" style="fill:none;stroke:#900;stroke-width:.1926;stroke-linecap:butt;stroke-linejoin:miter;stroke-miterlimit:3.86369991;stroke-opacity:1;stroke-dasharray:none"/><path d="M181.228 381.682c1.266-2.765 2.864-4.952 5.16-6.84l9.72 9.96 9.48-9.72c1.892 1.794 3.784 3.944 5.16 6.48l-14.64 14.04-14.88-14.04z" style="fill:#011f5b;fill-opacity:1;fill-rule:nonzero;stroke:none"/><path d="M181.228 381.682c1.266-2.765 2.864-4.952 5.16-6.84l9.72 9.96 9.48-9.72c1.892 1.794 3.784 3.944 5.16 6.48l-14.64 14.04-14.88-14.04z" style="fill:none;stroke:#011f5b;stroke-width:.1925;stroke-linecap:butt;stroke-linejoin:miter;stroke-miterlimit:3.86369991;stroke-opacity:1;stroke-dasharray:none"/><path d="M179.308 396.562h33.6" style="fill:none;stroke:#011f5b;stroke-width:.1926;stroke-linecap:butt;stroke-linejoin:miter;stroke-miterlimit:3.86369991;stroke-opacity:1;stroke-dasharray:none"/><path d="M204.508 404.242h.96c.622.174.866.562 1.56.6.488-.038.72-.366 1.08-.36.311-.006.782.344 1.32.36.508-.016.77-.333 1.08-.48.343-.133.746-.126 1.2-.12a2.6 2.6 0 0 1 0-.72c-.028-.294.324-.19.36-.6-.036-.466-.49-.378-.48-.6v-1.68c-.004-.156.416-.183.36-.48.056-.491-.413-.328-.36-.72 0-.253-.022-.833 0-.84-.925.008-6.735-.046-6.96 0-.042.584.054.547.12.84-.028.245-.567.393-.6.84.033.237.356.22.36.48v1.68c.008.206-.48.315-.48.6.037.4.47.353.48.6-.01.111.003.516 0 .6" style="fill:#fff;fill-opacity:1;fill-rule:nonzero;stroke:none"/><path d="M204.508 404.242h.96c.622.174.866.562 1.56.6.488-.038.72-.366 1.08-.36.311-.006.782.344 1.32.36.508-.016.77-.333 1.08-.48.343-.133.746-.126 1.2-.12a2.6 2.6 0 0 1 0-.72c-.028-.294.324-.19.36-.6-.036-.466-.49-.378-.48-.6v-1.68c-.004-.156.416-.183.36-.48.056-.491-.413-.328-.36-.72 0-.253-.022-.833 0-.84-.925.008-6.735-.046-6.96 0-.042.584.054.547.12.84-.028.245-.567.393-.6.84.033.237.356.22.36.48v1.68c.008.206-.48.315-.48.6.037.4.47.353.48.6-.01.111.003.516 0 .6z" style="fill:none;stroke:#011f5b;stroke-width:.1926;stroke-linecap:butt;stroke-linejoin:miter;stroke-miterlimit:3.86369991;stroke-opacity:1;stroke-dasharray:none"/><path d="M205.228 404.242c.02-.007.032-3.728 0-4.56.02-.044 5.44-.055 5.64 0 .04.958.034 4.58 0 4.56M208.108 404.482v-4.8" style="fill:none;stroke:#011f5b;stroke-width:.1926;stroke-linecap:butt;stroke-linejoin:miter;stroke-miterlimit:3.86369991;stroke-opacity:1;stroke-dasharray:none"/><path d="M208.228 400.282c.18-.07.618-.23 1.08-.36.514-.166 1.099-.05 1.56-.12.108-.043-2.699-.065-2.64-.12-.048.597-.059.542 0 .6" style="fill:#011f5b;fill-opacity:1;fill-rule:nonzero;stroke:none"/><path d="M208.228 400.282c.18-.07.618-.23 1.08-.36.514-.166 1.099-.05 1.56-.12.108-.043-2.699-.065-2.64-.12-.048.597-.059.542 0 .6z" style="fill:none;stroke:#011f5b;stroke-width:.1926;stroke-linecap:butt;stroke-linejoin:miter;stroke-miterlimit:3.86369991;stroke-opacity:1;stroke-dasharray:none"/><path d="M207.748 399.562c.018.066.159.164.36.12.147.044.288-.054.24-.12.048-.176-.093-.274-.24-.24-.201-.034-.342.064-.36.24" style="fill:#011f5b;fill-opacity:1;fill-rule:nonzero;stroke:none"/><path d="M207.748 399.562c.018.066.159.164.36.12.147.044.288-.054.24-.12.048-.176-.093-.274-.24-.24-.201-.034-.342.064-.36.24z" style="fill:none;stroke:#011f5b;stroke-width:.1926;stroke-linecap:butt;stroke-linejoin:miter;stroke-miterlimit:3.86369991;stroke-opacity:1;stroke-dasharray:none"/><path d="M207.868 400.282a13 13 0 0 0-1.08-.36c-.515-.166-1.1-.05-1.56-.12-.108-.043 2.698-.065 2.64-.12.047.597.058.542 0 .6" style="fill:#011f5b;fill-opacity:1;fill-rule:nonzero;stroke:none"/><path d="M207.868 400.282a13 13 0 0 0-1.08-.36c-.515-.166-1.1-.05-1.56-.12-.108-.043 2.698-.065 2.64-.12.047.597.058.542 0 .6z" style="fill:none;stroke:#011f5b;stroke-width:.1926;stroke-linecap:butt;stroke-linejoin:miter;stroke-miterlimit:3.86369991;stroke-opacity:1;stroke-dasharray:none"/><path d="M189.268 398.122c.128-.355.395-.59.84-.6.805.01 1.589.612 2.04.96.39.253.77.533.72 1.08v-.24c-.018.048.618.683 2.16.24.462-.2 2.327-1.248 2.76-1.44.317-.125 1.532-.997 3.48-.72-.05.06 2.85.458 2.16 3.48-.421 2.097-.278 2.248-.12 2.88-.05.085-1.754.468-1.68-1.92-.767-.053-1.71-.611-1.08-2.04.233.334.568.728 1.08.72.238.009.543-.408.6-.72.008-.738-.742-1.067-1.68-.96-.466.125-.902.648-1.56 1.08.121.094.225.477.24.6-.015.408-.339.583-.6.72.085.12.176.295.12.48.056.248-.37.226-.48.36.013.074.013.019 0 .12.013.474.081.714-.84.72.11.405.018.684-.24.84h-.72c-.391.129.017.265-.36.6-.337.353-.892.029-.84 0-.052.33-.259.568-.6.6-.216-.032-.454-.048-.6-.12l-.24-.24c-.364.022-.45.328-.84.36-.394-.032-.553-.338-.72-.48-.253.07-.287.295-.6.24-.255.055-.318-.17-.36-.24-.282-.29-.265-.557-.6-.72l-.12.24c-.048.045-.052.06 0 .12-.59-.303-1.795-3.05-1.8-3.6.005-.55.472-.314.48-.84-.008-.388-.508-.635-.48-.96-.028-.331.398-.512.72-.48z" style="fill:#fff;fill-opacity:1;fill-rule:evenodd;stroke:none"/><path d="M189.268 398.122c.128-.355.395-.59.84-.6.805.01 1.589.612 2.04.96.39.253.77.533.72 1.08v-.24c-.018.048.618.683 2.16.24.462-.2 2.327-1.248 2.76-1.44.317-.125 1.532-.997 3.48-.72-.05.06 2.85.458 2.16 3.48-.421 2.097-.278 2.248-.12 2.88-.05.085-1.754.468-1.68-1.92-.767-.053-1.71-.611-1.08-2.04.233.334.568.728 1.08.72.238.009.543-.408.6-.72.008-.738-.742-1.067-1.68-.96-.466.125-.902.648-1.56 1.08.121.094.225.477.24.6-.015.408-.339.583-.6.72.085.12.176.295.12.48.056.248-.37.226-.48.36.013.074.013.019 0 .12.013.474.081.714-.84.72.11.405.018.684-.24.84h-.72c-.391.129.017.265-.36.6-.337.353-.892.029-.84 0-.052.33-.259.568-.6.6-.216-.032-.454-.048-.6-.12l-.24-.24c-.364.022-.45.328-.84.36-.394-.032-.553-.338-.72-.48-.253.07-.287.295-.6.24-.255.055-.318-.17-.36-.24-.282-.29-.265-.557-.6-.72l-.12.24c-.048.045-.052.06 0 .12-.59-.303-1.795-3.05-1.8-3.6.005-.55.472-.314.48-.84-.008-.388-.508-.635-.48-.96-.028-.331.398-.512.72-.48z" style="fill:none;stroke:#011f5b;stroke-width:.1925;stroke-linecap:butt;stroke-linejoin:miter;stroke-miterlimit:3.86369991;stroke-opacity:1;stroke-dasharray:none"/><path d="M190.588 400.402c-.028.029.563-.199.6-.36-.037-.128-.418-.312-.72-.48h-.24c.083.321-.031.186 0 .48a.316.316 0 0 0 .36.36" style="fill:#011f5b;fill-opacity:1;fill-rule:nonzero;stroke:none"/><path d="M190.588 400.402c-.028.029.563-.199.6-.36-.037-.128-.418-.312-.72-.48h-.24c.083.321-.031.186 0 .48a.316.316 0 0 0 .36.36zM192.748 401.482c.278.104.136.481.6.48.468.001.632-.305 1.08-.36.217.055.405.317.72.36.372-.043.798-.48.72-.96.01-.046 1.147.327 1.08-.84.93.247.839-.503.96-.84.06-.38.652-.095.6-.84" style="fill:none;stroke:#011f5b;stroke-width:.1926;stroke-linecap:butt;stroke-linejoin:miter;stroke-miterlimit:3.86369991;stroke-opacity:1;stroke-dasharray:none"/><path d="M180.628 404.242h.84c.708.144.952.533 1.68.48.454.053.687-.276 1.08-.24.277-.036.749.315 1.32.36.474-.045.736-.363 1.08-.48.309-.162.712-.155 1.08-.12.047-.341.058-.524 0-.84.058-.203.41-.1.36-.48.05-.495-.404-.407-.36-.6l-.12-1.68c.082-.185.502-.212.48-.48.022-.52-.446-.357-.36-.72-.033-.282-.055-.862 0-.84-.959-.022-6.646-.028-6.96 0 .047.602.02.517 0 .84.059.216-.481.364-.48.72-.001.328.323.311.36.6v1.68c-.026.177-.515.286-.48.6.003.371.437.323.48.6-.043.082-.032.487 0 .6" style="fill:#fff;fill-opacity:1;fill-rule:nonzero;stroke:none"/><path d="M180.628 404.242h.84c.708.144.952.533 1.68.48.454.053.687-.276 1.08-.24.277-.036.749.315 1.32.36.474-.045.736-.363 1.08-.48.309-.162.712-.155 1.08-.12.047-.341.058-.524 0-.84.058-.203.41-.1.36-.48.05-.495-.404-.407-.36-.6l-.12-1.68c.082-.185.502-.212.48-.48.022-.52-.446-.357-.36-.72-.033-.282-.055-.862 0-.84-.959-.022-6.646-.028-6.96 0 .047.602.02.517 0 .84.059.216-.481.364-.48.72-.001.328.323.311.36.6v1.68c-.026.177-.515.286-.48.6.003.371.437.323.48.6-.043.082-.032.487 0 .6z" style="fill:none;stroke:#011f5b;stroke-width:.1926;stroke-linecap:butt;stroke-linejoin:miter;stroke-miterlimit:3.86369991;stroke-opacity:1;stroke-dasharray:none"/><path d="M181.348 404.242c-.013-.036-.001-3.758 0-4.68-.013.047 5.407.036 5.64 0 .006 1.048 0 4.671 0 4.68M184.228 404.482v-4.92" style="fill:none;stroke:#011f5b;stroke-width:.1926;stroke-linecap:butt;stroke-linejoin:miter;stroke-miterlimit:3.86369991;stroke-opacity:1;stroke-dasharray:none"/><path d="M184.228 400.162c.266.021.704-.14 1.08-.24.6-.196 1.185-.079 1.56-.12.194-.073-2.613-.095-2.64-.12.039.567.027.512 0 .48" style="fill:#011f5b;fill-opacity:1;fill-rule:nonzero;stroke:none"/><path d="M184.228 400.162c.266.021.704-.14 1.08-.24.6-.196 1.185-.079 1.56-.12.194-.073-2.613-.095-2.64-.12.039.567.027.512 0 .48z" style="fill:none;stroke:#011f5b;stroke-width:.1926;stroke-linecap:butt;stroke-linejoin:miter;stroke-miterlimit:3.86369991;stroke-opacity:1;stroke-dasharray:none"/><path d="M183.868 399.442a.22.22 0 0 0 .24.24c.233.014.375-.084.36-.24.015-.086-.127-.184-.36-.24-.115.056-.256.154-.24.24" style="fill:#011f5b;fill-opacity:1;fill-rule:nonzero;stroke:none"/><path d="M183.868 399.442a.22.22 0 0 0 .24.24c.233.014.375-.084.36-.24.015-.086-.127-.184-.36-.24-.115.056-.256.154-.24.24z" style="fill:none;stroke:#011f5b;stroke-width:.1926;stroke-linecap:butt;stroke-linejoin:miter;stroke-miterlimit:3.86369991;stroke-opacity:1;stroke-dasharray:none"/><path d="M183.988 400.162c-.214.021-.652-.14-1.08-.24-.549-.196-1.133-.079-1.56-.12-.142-.073 2.664-.095 2.64-.12.013.567.024.512 0 .48" style="fill:#011f5b;fill-opacity:1;fill-rule:nonzero;stroke:none"/><path d="M183.988 400.162c-.214.021-.652-.14-1.08-.24-.549-.196-1.133-.079-1.56-.12-.142-.073 2.664-.095 2.64-.12.013.567.024.512 0 .48z" style="fill:none;stroke:#011f5b;stroke-width:.1926;stroke-linecap:butt;stroke-linejoin:miter;stroke-miterlimit:3.86369991;stroke-opacity:1;stroke-dasharray:none"/><path d="M185.068 382.762c.028 1.553 1.342 2.819 3 2.76 1.583.059 2.896-1.207 2.88-2.76.016-1.569-1.297-2.834-2.88-2.88-1.658.046-2.972 1.311-3 2.88" style="fill:#fff;fill-opacity:1;fill-rule:nonzero;stroke:none"/><path d="M185.068 382.762c.028 1.553 1.342 2.819 3 2.76 1.583.059 2.896-1.207 2.88-2.76.016-1.569-1.297-2.834-2.88-2.88-1.658.046-2.972 1.311-3 2.88z" style="fill:none;stroke:#011f5b;stroke-width:.1926;stroke-linecap:butt;stroke-linejoin:miter;stroke-miterlimit:3.86369991;stroke-opacity:1;stroke-dasharray:none"/><path d="M193.108 389.602c.054 1.501 1.368 2.767 3 2.76 1.609.006 2.922-1.259 2.88-2.76.042-1.62-1.271-2.886-2.88-2.88a2.97 2.97 0 0 0-3 2.88" style="fill:#fff;fill-opacity:1;fill-rule:nonzero;stroke:none"/><path d="M193.108 389.602c.054 1.501 1.368 2.767 3 2.76 1.609.006 2.922-1.259 2.88-2.76.042-1.62-1.271-2.886-2.88-2.88a2.97 2.97 0 0 0-3 2.88z" style="fill:none;stroke:#011f5b;stroke-width:.1925;stroke-linecap:butt;stroke-linejoin:miter;stroke-miterlimit:3.86369991;stroke-opacity:1;stroke-dasharray:none"/><path d="M200.788 382.762c-.015 1.553 1.298 2.819 2.88 2.76 1.659.059 2.973-1.207 3-2.76-.027-1.569-1.341-2.834-3-2.88-1.582.046-2.895 1.311-2.88 2.88" style="fill:#fff;fill-opacity:1;fill-rule:nonzero;stroke:none"/><path d="M200.788 382.762c-.015 1.553 1.298 2.819 2.88 2.76 1.659.059 2.973-1.207 3-2.76-.027-1.569-1.341-2.834-3-2.88-1.582.046-2.895 1.311-2.88 2.88zM198.988 400.041c-.699.861-1.36 1.83-1.44 1.92-.403.112-1.284 1.863-3.6 2.04-.647-.012-2.908-.232-3-.84" style="fill:none;stroke:#011f5b;stroke-width:.1926;stroke-linecap:butt;stroke-linejoin:miter;stroke-miterlimit:3.86369991;stroke-opacity:1;stroke-dasharray:none"/><path d="M192.988 399.442c-.046.055-.042.116 0 .12-.042.153-.595.1-.72.12-.098.046.237.18.12.24.4.071 1.273.456.96.72-.288.314-.464.615-.6.84-.25.197-.512.328-.96.36-.302-.032-.863-.633-1.08-.84.154.207.648.633.6.96.048.811-.583 1.495-.72 2.16M189.508 398.242c.652 0 1.005.044 1.32.24.304.127.889.493 1.08.84" style="fill:none;stroke:#011f5b;stroke-width:.1926;stroke-linecap:butt;stroke-linejoin:miter;stroke-miterlimit:3.86369991;stroke-opacity:1;stroke-dasharray:none"/></g></g></svg>