<svg xmlns="http://www.w3.org/2000/svg" viewBox="0 0 2228.833 2073.333">
  <path fill="#5059C9" d="M1554.637 777.5h575.713c54.391 0 98.483 44.092 98.483 98.483v524.398c0 199.901-162.051 361.952-361.952 361.952h-1.711c-199.901.028-361.975-161.996-362.004-361.897V875.98c0-54.36 44.07-98.48 51.471-98.48z"/>
  <circle fill="#5059C9" cx="1943.75" cy="440.583" r="233.25"/>
  <circle fill="#7B83EB" cx="1218.083" cy="336.917" r="336.917"/>
  <path fill="#7B83EB" d="M1667.323 777.5H717.01c-53.743 1.33-96.257 45.931-95.01 99.676v598.105c-7.505 322.519 247.657 590.16 570.167 598.053 322.51-7.893 577.671-275.534 570.167-598.053V877.176c1.245-53.745-41.268-98.346-95.011-99.676z"/>
  <path opacity=".1" d="M1244.167 777.5v838.145c-.258 38.435-23.549 72.964-59.09 87.598a91.856 91.856 0 0 1-35.765 7.257H783.876c-3.122-10.393-5.993-20.787-8.614-31.43-16.846-66.142-25.428-134.076-25.553-202.318V877.176c-1.246-53.745 41.267-98.346 95.01-99.676h399.448z"/>
  <path opacity=".2" d="M1192.333 777.5v889.978a91.802 91.802 0 0 1-7.257 35.765c-14.634 35.541-49.163 58.832-87.598 59.09H799.297c-5.326-10.393-10.402-20.787-15.228-31.43-4.826-10.643-9.152-21.286-12.979-31.43-16.846-66.142-25.428-134.076-25.553-202.318V877.176c-1.246-53.745 41.267-98.346 95.01-99.676h351.786z"/>
  <path opacity=".2" d="M1192.333 777.5v786.312c-.395 52.223-42.632 94.46-94.855 94.855H771.09c-16.846-66.142-25.428-134.076-25.553-202.318V877.176c-1.246-53.745 41.267-98.346 95.01-99.676h351.786z"/>
  <path opacity=".2" d="M1140.5 777.5v786.312c-.395 52.223-42.632 94.46-94.855 94.855H771.09c-16.846-66.142-25.428-134.076-25.553-202.318V877.176c-1.246-53.745 41.267-98.346 95.01-99.676h300.953z"/>
  <linearGradient id="a" gradientUnits="userSpaceOnUse" x1="198.099" y1="1683.0726" x2="942.2344" y2="394.2607" gradientTransform="matrix(1 0 0 -1 0 2075.3333)">
    <stop offset="0" stop-color="#5a62c3"/>
    <stop offset=".5" stop-color="#4d55bd"/>
    <stop offset="1" stop-color="#3940ab"/>
  </linearGradient>
  <path fill="url(#a)" d="M95.01 777.5h950.48c52.473 0 95.01 42.538 95.01 95.01v950.48c0 52.473-42.538 95.01-95.01 95.01H95.01c-52.473 0-95.01-42.538-95.01-95.01v-950.48c0-52.472 42.538-95.01 95.01-95.01z"/>
  <path fill="#FFF" d="M820.211 1100.55H630.241v517.95H509.211v-517.95H320.123V999.5h500.088v101.05z"/>
</svg>
